<svg xmlns="http://www.w3.org/2000/svg" xmlns:xlink="http://www.w3.org/1999/xlink" width="512" height="180">
  <defs>
    <filter id="b" width="103.5%" height="112.1%" x="-1.8%" y="-4.8%" filterUnits="objectBoundingBox">
      <feOffset dy="2" in="SourceAlpha" result="shadowOffsetOuter1"/>
      <feGaussianBlur in="shadowOffsetOuter1" result="shadowBlurOuter1" stdDeviation="2"/>
      <feColorMatrix in="shadowBlurOuter1" result="shadowMatrixOuter1" values="0 0 0 0 0 0 0 0 0 0 0 0 0 0 0 0 0 0 0.5 0"/>
      <feOffset dx="3" dy="-2" in="SourceAlpha" result="shadowOffsetOuter2"/>
      <feGaussianBlur in="shadowOffsetOuter2" result="shadowBlurOuter2" stdDeviation=".5"/>
      <feColorMatrix in="shadowBlurOuter2" result="shadowMatrixOuter2" values="0 0 0 0 1 0 0 0 0 0.184313725 0 0 0 0 0.662745098 0 0 0 0.5 0"/>
      <feOffset dx="-1" dy="2" in="SourceAlpha" result="shadowOffsetOuter3"/>
      <feGaussianBlur in="shadowOffsetOuter3" result="shadowBlurOuter3" stdDeviation=".5"/>
      <feColorMatrix in="shadowBlurOuter3" result="shadowMatrixOuter3" values="0 0 0 0 0 0 0 0 0 0.956862745 0 0 0 0 1 0 0 0 0.5 0"/>
      <feMerge>
        <feMergeNode in="shadowMatrixOuter1"/>
        <feMergeNode in="shadowMatrixOuter2"/>
        <feMergeNode in="shadowMatrixOuter3"/>
      </feMerge>
    </filter>
    <path id="a" d="M36 24h32v8h8v60h-8v8H52v24H0V96h8V52H0V24h36Zm320 0v48h4V24h36v84h-8v8h-8v8h-60V96h8v-4h-8V24h36Zm-224 0v8h8v60h-8v8H72v-8h-8V32h8v-8h60Zm-28 44h-4v4h4v-4Zm92-44v8h8v60h-8v8h-60v-8h-8V32h8v-8h60Zm-28 28h-4v20h4V52Zm32 48v-8h-8V24h36v16h4V24h36v68h-8v8h-60ZM316 0v72h8v28h-52V72h8V28h-8V0h44Z"/>
  </defs>
  <g fill="none">
    <g transform="translate(58 22)">
      <use xlink:href="#a" fill="#000" filter="url(#b)"/>
      <use xlink:href="#a" fill="#FFF"/>
    </g>
    <path fill="#FF2FA9" d="M92 56h24v8h8v40h-8v8H92v16h8v8H68v-8h8V64h-8v-8h16v8h8v40h16V64H92v-8Zm56 16h24v-8h-24v8Zm-8-16h40v8h8v16h-40v24h24v-8h16v8h-8v8h-40v-8h-8V64h8v-8Zm96 8h-24v40h24V64Zm-32 40h-8V64h8v-8h40v8h8v40h-8v8h-40v-8Zm104 8h-16v-8h-8v8h-16v-8h-8V56h16v40h8V72h8v24h8V56h16v48h-8v8Zm32-80h24v72h8v8h-32v-8h8V40h-8v-8Zm48 96h32v-8h8v-8h-32v-8h-8V56h16v48h24V56h16v64h-8v8h-8v8h-40v-8Z"/>
  </g>
</svg>
